# xmcd CD database file
#
# Track frame offsets:
#	150
#	72773
#	105042
#	116178
#	131706
#	147166
#	170287
#
# Disc length: 2565 seconds
#
# Revision: 0
# Processed by: cddbd v1.5.1PL2 Copyright (c) Steve Scherf et al.
# Submitted via: CDex 1.60beta1
#
DISCID=5a0a0307
DTITLE=Feuille - Feuille First Live CD "瑠璃子" in GameMusicFesta 4
DYEAR=1900
DGENRE=ジャズ (一般)
TTITLE0=データトラック
TTITLE1=瑠璃子
TTITLE2=無何有の郷
TTITLE3=お嬢様はエレガント
TTITLE4=サザンウィンド〜ラピード綾香
TTITLE5=遠野家ロビー
TTITLE6=クロスフェード(GMF4LiveRec.)
EXTD=
EXTT0=
EXTT1=
EXTT2=
EXTT3=
EXTT4=
EXTT5=
EXTT6=
PLAYORDER=
